<svg xmlns="http://www.w3.org/2000/svg" xmlns:xlink="http://www.w3.org/1999/xlink" width="38.769" height="36" viewBox="0 0 38.769 36"><defs><style>.a{fill:url(#a);}</style><linearGradient id="a" x1="0.5" x2="0.5" y2="1" gradientUnits="objectBoundingBox"><stop offset="0" stop-color="#f80"/><stop offset="1" stop-color="#f60"/></linearGradient></defs><path class="a" d="M30.868.4a.833.833,0,0,0-1.126-.3L16.248,7.755a.8.8,0,0,0-.4.863l4.56,21.872a.2.2,0,0,1-.047.175l-.615.681A4.773,4.773,0,0,1,15.784,33.3c-2.071,0-3.043-1.071-4.583-2.965-1.839-2.261-4.127-5.076-9.69-5.076H1.374a1.349,1.349,0,1,0,0,2.7h.138c4.24,0,5.844,1.973,7.542,4.061C10.57,33.886,12.29,36,15.784,36a7.513,7.513,0,0,0,6.022-2.865l4.96-5.489,11.8-13.056a.8.8,0,0,0,.1-.941Z"/></svg>